<?xml version="1.0" standalone="no"?>
<!DOCTYPE svg PUBLIC "-//W3C//DTD SVG 20010904//EN"
 "http://www.w3.org/TR/2001/REC-SVG-20010904/DTD/svg10.dtd">
<svg version="1.0" xmlns="http://www.w3.org/2000/svg"
 width="420.000000pt" height="420.000000pt" viewBox="0 0 420.000000 420.000000"
 preserveAspectRatio="xMidYMid meet">
<metadata>
Created by potrace 1.11, written by Peter Selinger 2001-2013
</metadata>
<g transform="translate(0.000000,420.000000) scale(0.100000,-0.100000)"
fill="#000000" stroke="none">
<path d="M970 2940 c-154 -40 -274 -120 -348 -230 -23 -35 -42 -59 -43 -54 -5
42 -16 203 -18 257 -1 15 -16 17 -161 17 l-160 0 0 -845 0 -845 181 2 182 3 2
510 c1 281 5 522 9 536 22 93 68 181 125 238 49 49 106 91 125 91 8 0 17 4 20
8 11 19 117 35 193 29 167 -12 274 -106 299 -264 5 -26 9 -51 10 -55 1 -5 2
-253 3 -553 l1 -545 180 0 180 0 1 478 c1 519 2 553 18 595 6 16 9 33 5 38 -3
5 0 9 7 9 7 0 10 3 6 6 -8 8 49 112 86 154 16 19 50 49 75 67 180 130 472 78
549 -97 38 -86 40 -122 39 -692 l-1 -558 183 0 183 0 -4 613 c-2 336 -7 626
-11 642 -23 93 -55 170 -91 215 -50 63 -146 147 -195 171 -124 60 -188 74
-335 72 -248 -3 -458 -115 -556 -297 l-17 -30 -21 42 c-66 129 -192 221 -371
269 -83 22 -251 24 -330 3z"/>
<path d="M3360 2153 c-99 -16 -186 -60 -253 -126 -90 -89 -128 -197 -123 -346
4 -108 10 -132 46 -206 26 -54 75 -114 125 -154 95 -77 309 -112 455 -75 223
57 352 243 337 487 -6 102 -34 182 -88 254 -46 62 -137 125 -213 149 -49 15
-231 26 -286 17z"/>
</g>
</svg>
